<svg xmlns="http://www.w3.org/2000/svg" version="1.1" xmlns:xlink="http://www.w3.org/1999/xlink" xmlns:svgjs="http://svgjs.dev/svgjs" width="1000" height="1000" viewBox="0 0 1000 1000"><rect width="1000" height="1000" fill="#000000"></rect><g transform="matrix(0.7,0,0,0.7,150.11896067415722,327.12602540522346)"><svg viewBox="0 0 356 176" data-background-color="#7fdbff" preserveAspectRatio="xMidYMid meet" height="494" width="1000" xmlns="http://www.w3.org/2000/svg" xmlns:xlink="http://www.w3.org/1999/xlink"><g id="tight-bounds" transform="matrix(1,0,0,1,-0.06049999999996203,-0.013246013069164064)"><svg viewBox="0 0 356.12052 176.02649202613833" height="176.02649202613833" width="356.12052"><g><svg viewBox="0 0 356.12052 176.02649202613833" height="176.02649202613833" width="356.12052"><g><svg viewBox="0 0 356.12052 176.02649202613833" height="176.02649202613833" width="356.12052"><g><path d="M0 176.026v-176.026h356.121v176.026z" fill="#ffffff" stroke="transparent" stroke-width="0" rx="0%" data-fill-palette-color="tertiary"></path><path d="M3.283 172.743v-169.46h349.554v169.46z" fill="#000000" stroke="transparent" stroke-width="0" rx="0%" data-fill-palette-color="quaternary"></path><path d="M9.85 166.177v-156.327h336.421v156.327z" fill="#ffffff" stroke="transparent" stroke-width="0" data-fill-palette-color="tertiary"></path></g><g transform="matrix(1,0,0,1,19.69974,19.69974)" id="textblocktransform"><svg viewBox="0 0 316.72104 136.62701202613835" height="136.62701202613835" width="316.72104" id="textblock"><g><svg viewBox="0 0 316.72104 89.30012281951976" height="89.30012281951976" width="316.72104"><g transform="matrix(1,0,0,1,0,0)"><svg width="316.72104" viewBox="3.299999952316284 -35.70000076293945 129.08999633789062 36.400001525878906" height="89.30012281951976" data-palette-color="#77d4fc"><path d="M19-18.85Q24.65-16.75 24.65-10L24.65-10Q24.65-5.4 21.98-2.7 19.3 0 14.6 0L14.6 0 3.3 0 3.3-35 12.4-35Q17.05-35 19.6-32.83 22.15-30.65 22.15-26.4L22.15-26.4Q22.15-23.9 21.35-21.93 20.55-19.95 19-18.85L19-18.85ZM7.85-30.85L7.85-20.4 11.85-20.4Q14.85-20.4 16.07-21.53 17.3-22.65 17.3-25.7L17.3-25.7Q17.3-28.65 16.07-29.75 14.85-30.85 11.85-30.85L11.85-30.85 7.85-30.85ZM14.2-4.15Q16.75-4.15 18.23-5.68 19.7-7.2 19.7-10.15L19.7-10.15Q19.7-13.35 18.28-14.78 16.85-16.2 14.2-16.2L14.2-16.2 7.85-16.2 7.85-4.15 14.2-4.15ZM29.85 0L29.85-35 34.4-35 34.4-4.15 47.75-4.15 47.75 0 29.85 0ZM63.85 0.7Q59.55 0.7 56.17-1.55 52.8-3.8 50.9-7.93 49-12.05 49-17.5L49-17.5Q49-22.95 50.9-27.08 52.8-31.2 56.17-33.45 59.55-35.7 63.85-35.7L63.85-35.7Q68.15-35.7 71.5-33.45 74.84-31.2 76.75-27.08 78.65-22.95 78.65-17.5L78.65-17.5Q78.65-12.05 76.75-7.93 74.84-3.8 71.5-1.55 68.15 0.7 63.85 0.7L63.85 0.7ZM63.85-3.85Q68.65-3.85 71.22-7.68 73.8-11.5 73.8-17.5L73.8-17.5Q73.8-23.5 71.22-27.33 68.65-31.15 63.85-31.15L63.85-31.15Q59.05-31.15 56.45-27.33 53.85-23.5 53.85-17.5L53.85-17.5Q53.85-11.5 56.45-7.68 59.05-3.85 63.85-3.85L63.85-3.85ZM98.04 0.7Q92.99 0.7 89.29-1.63 85.59-3.95 83.62-8.08 81.64-12.2 81.64-17.5L81.64-17.5Q81.64-22.95 83.74-27.08 85.84-31.2 89.52-33.45 93.19-35.7 97.89-35.7L97.89-35.7Q102.19-35.7 105.69-34.2L105.69-34.2 105.19-29.95Q103.54-30.75 101.92-31.15 100.29-31.55 98.34-31.55L98.34-31.55Q94.64-31.55 92.02-29.7 89.39-27.85 88.04-24.65 86.69-21.45 86.69-17.5L86.69-17.5Q86.69-11.2 89.64-7.33 92.59-3.45 98.29-3.45L98.29-3.45Q100.49-3.45 102.14-4.15L102.14-4.15 102.14-13.4 97.69-13.4 97.69-17.55 106.69-17.55 106.69-1.6Q105.04-0.55 102.74 0.08 100.44 0.7 98.04 0.7L98.04 0.7ZM120.29 0.7Q117.84 0.7 115.17 0.13 112.49-0.45 110.79-1.25L110.79-1.25 111.44-6.25Q113.44-5 115.89-4.23 118.34-3.45 120.74-3.45L120.74-3.45Q123.84-3.45 125.59-4.73 127.34-6 127.34-8.45L127.34-8.45Q127.34-10.2 126.52-11.45 125.69-12.7 124.14-13.68 122.59-14.65 119.79-15.9L119.79-15.9Q116.49-17.4 114.57-18.65 112.64-19.9 111.49-21.75 110.34-23.6 110.34-26.35L110.34-26.35Q110.34-29.15 111.79-31.28 113.24-33.4 115.87-34.55 118.49-35.7 121.84-35.7L121.84-35.7Q124.39-35.7 126.67-35.15 128.94-34.6 130.54-33.8L130.54-33.8 130.04-29.1Q125.89-31.55 121.59-31.55L121.59-31.55Q118.69-31.55 117.04-30.35 115.39-29.15 115.39-26.65L115.39-26.65Q115.39-24.95 116.27-23.83 117.14-22.7 118.69-21.83 120.24-20.95 123.39-19.5L123.39-19.5Q128.09-17.4 130.24-14.98 132.39-12.55 132.39-8.9L132.39-8.9Q132.39-4.45 129.14-1.88 125.89 0.7 120.29 0.7L120.29 0.7Z" opacity="1" transform="matrix(1,0,0,1,0,0)" fill="#000000" class="wordmark-text-0" data-fill-palette-color="quaternary" id="text-0"></path></svg></g></svg></g><g transform="matrix(1,0,0,1,0,95.86670281951976)"><svg viewBox="0 0 316.72104 40.76030920661859" height="40.76030920661859" width="316.72104"><g transform="matrix(1,0,0,1,0,0)"><svg width="316.72104" viewBox="3.8499999046325684 -35.900001525878906 353.5099792480469 45.5" height="40.76030920661859" data-palette-color="#77d4fc"><path d="M7.9-15.3L7.9-3.45 15.55-3.45Q18.75-3.45 20.48-4.93 22.2-6.4 22.2-9.25 22.2-12.1 20.28-13.7 18.35-15.3 14.8-15.3L14.8-15.3 7.9-15.3ZM14-30.25L7.9-30.25 7.9-18.75 13.3-18.75Q17.35-18.75 19.3-20.45 21.25-22.15 21.25-24.85L21.25-24.85Q21.25-27.2 19.43-28.73 17.6-30.25 14-30.25L14-30.25ZM3.85 0L3.85-33.7 14-33.7Q19.2-33.7 22.33-31.3 25.45-28.9 25.45-24.85L25.45-24.85Q25.45-21.95 23.83-19.83 22.2-17.7 19.65-17.15L19.65-17.15Q22.45-16.7 24.43-14.63 26.4-12.55 26.4-9L26.4-9Q26.4-4.95 23.73-2.48 21.05 0 16.15 0L16.15 0 3.85 0ZM36.35 0L32.4 0 32.4-35.35 36.35-35.35 36.35 0ZM54.15 0.45L54.15 0.45Q48.7 0.45 45.52-3.23 42.34-6.9 42.34-12.5L42.34-12.5Q42.34-18.15 45.62-21.93 48.9-25.7 54.15-25.7L54.15-25.7Q59.9-25.7 63.02-22 66.15-18.3 66.15-12.6L66.15-12.6Q66.15-6.95 62.95-3.25 59.75 0.45 54.15 0.45ZM54.15-22.2L54.15-22.2Q50.55-22.2 48.5-19.4 46.45-16.6 46.45-12.55L46.45-12.55Q46.45-8.6 48.55-5.83 50.65-3.05 54.15-3.05L54.15-3.05Q57.95-3.05 60-5.78 62.05-8.5 62.05-12.55L62.05-12.55Q62.05-16.75 60.09-19.48 58.14-22.2 54.15-22.2ZM81.44-4.15L81.44-4.15Q84.19-4.15 86.32-6.28 88.44-8.4 88.44-12.6L88.44-12.6Q88.44-17.45 86.39-19.8 84.34-22.15 81.64-22.15L81.64-22.15Q78.39-22.15 76.49-19.58 74.59-17 74.59-12.85L74.59-12.85Q74.59-8.6 76.69-6.38 78.79-4.15 81.44-4.15ZM88.44-21.15L88.44-25.35 92.39-25.35 92.39-2.05Q92.39 3.75 89.19 6.68 85.99 9.6 80.94 9.6L80.94 9.6Q76.34 9.6 73.09 8.05L73.09 8.05 73.09 4.1Q76.29 5.95 80.59 5.95L80.59 5.95Q84.24 5.95 86.34 4 88.44 2.05 88.44-2.1L88.44-2.1 88.44-4.95Q85.94-0.65 80.99-0.65L80.99-0.65Q76.64-0.65 73.57-3.85 70.49-7.05 70.49-12.75L70.49-12.75Q70.49-18.4 73.34-22.05 76.19-25.7 80.79-25.7L80.79-25.7Q85.99-25.7 88.44-21.15L88.44-21.15ZM113.19-24.5L113.19-24.5 113.19-20.75Q110.89-22.15 106.89-22.15L106.89-22.15Q104.89-22.15 103.72-21.23 102.54-20.3 102.54-18.85L102.54-18.85Q102.54-17.95 102.89-17.28 103.24-16.6 104.27-15.95 105.29-15.3 105.77-15.08 106.24-14.85 107.84-14.15L107.84-14.15Q111.04-12.85 112.84-11.2 114.64-9.55 114.64-6.75L114.64-6.75Q114.64-3.5 112.37-1.6 110.09 0.3 106.14 0.3L106.14 0.3Q101.54 0.3 98.69-1.25L98.69-1.25 98.69-5.1Q102.04-3.1 105.89-3.1L105.89-3.1Q108.19-3.1 109.39-4 110.59-4.9 110.59-6.45L110.59-6.45Q110.59-8.25 109.27-9.25 107.94-10.25 104.84-11.5L104.84-11.5Q101.99-12.6 100.27-14.25 98.54-15.9 98.54-18.7L98.54-18.7Q98.54-21.85 100.92-23.73 103.29-25.6 106.84-25.6L106.84-25.6Q110.79-25.6 113.19-24.5ZM143.73-3.2L143.73-3.2Q146.78-3.2 148.78-5.75 150.78-8.3 150.78-12.4L150.78-12.4Q150.78-17.1 148.71-19.63 146.63-22.15 143.48-22.15L143.48-22.15Q140.78-22.15 138.53-19.9 136.28-17.65 136.28-12.85L136.28-12.85Q136.28-7.8 138.46-5.5 140.63-3.2 143.73-3.2ZM132.34-35.35L136.28-35.35 136.28-21.55Q139.03-25.75 143.98-25.75L143.98-25.75Q148.78-25.75 151.84-22.08 154.88-18.4 154.88-12.45L154.88-12.45Q154.88-7.1 152.01-3.35 149.13 0.4 144.09 0.4L144.09 0.4Q138.98 0.4 136.28-3.75L136.28-3.75 136.28 0 132.34 0 132.34-35.35ZM167.68-0.65L167.68-0.65 157.43-25.35 161.88-25.35 165.18-17 169.63-5.5Q170.03-6.8 173.63-17L173.63-17 176.58-25.35 180.83-25.35 171.68-0.65Q169.73 4.5 167.06 6.6 164.38 8.7 160.93 8.7L160.93 8.7Q159.63 8.7 158.83 8.45L158.83 8.45 158.83 4.9Q159.58 5.1 160.53 5.1L160.53 5.1Q165.58 5.1 167.68-0.65ZM219.58-33.7L223.93-33.7 212.18 0 207.08 0 195.68-33.7 200.03-33.7 204.43-20.35 209.68-3.65Q211.63-9.95 215.08-20.35L215.08-20.35 219.58-33.7ZM233.53 0L229.57 0 229.57-25.35 233.53-25.35 233.53 0ZM229.7-31.48Q228.97-32.2 228.97-33.3 228.97-34.4 229.7-35.15 230.42-35.9 231.53-35.9 232.63-35.9 233.38-35.15 234.13-34.4 234.13-33.3 234.13-32.2 233.38-31.48 232.63-30.75 231.53-30.75 230.42-30.75 229.7-31.48ZM241.02-25.35L244.92-25.35 244.92-20.95Q247.17-25.7 252.92-25.7L252.92-25.7Q256.62-25.7 258.82-23.45 261.02-21.2 261.02-17.45L261.02-17.45 261.02 0 257.07 0 257.07-16.4Q257.07-19.2 255.65-20.68 254.22-22.15 251.92-22.15L251.92-22.15Q249.07-22.15 247-19.95 244.92-17.75 244.92-13.85L244.92-13.85 244.92 0 241.02 0 241.02-25.35ZM270.62-12.55L270.62-12.55Q270.67-8.45 273.12-5.73 275.57-3 280.07-3L280.07-3Q282.97-3 285.47-4.65L285.47-4.65 285.47-0.9Q283.07 0.55 279.57 0.55L279.57 0.55Q273.57 0.55 270.05-3.28 266.52-7.1 266.52-12.6L266.52-12.6Q266.52-18 270.05-21.9 273.57-25.8 279.67-25.8L279.67-25.8Q282.92-25.8 285.47-24.4L285.47-24.4 285.47-20.65Q283.17-22.2 280.07-22.2L280.07-22.2Q275.77-22.2 273.19-19.43 270.62-16.65 270.62-12.55ZM294.12-14.3L307.72-14.3 307.72-15.3Q307.72-18.45 306.02-20.33 304.32-22.2 301.32-22.2L301.32-22.2Q298.47-22.2 296.47-20.15 294.47-18.1 294.12-14.3L294.12-14.3ZM310.07-5L310.07-5 310.07-1.3Q307.12 0.25 302.87 0.25L302.87 0.25Q297.12 0.25 293.59-3.28 290.07-6.8 290.07-12.6L290.07-12.6Q290.07-18.65 293.22-22.15 296.37-25.65 301.32-25.65L301.32-25.65Q306.07-25.65 308.87-22.6 311.67-19.55 311.67-13.95L311.67-13.95Q311.67-12.35 311.42-11L311.42-11 294.12-11Q294.57-7.25 296.97-5.25 299.37-3.25 303.27-3.25L303.27-3.25Q307.52-3.25 310.07-5ZM317.67-25.35L321.57-25.35 321.57-20.95Q323.82-25.7 329.57-25.7L329.57-25.7Q333.27-25.7 335.47-23.45 337.67-21.2 337.67-17.45L337.67-17.45 337.67 0 333.72 0 333.72-16.4Q333.72-19.2 332.29-20.68 330.87-22.15 328.57-22.15L328.57-22.15Q325.72-22.15 323.64-19.95 321.57-17.75 321.57-13.85L321.57-13.85 321.57 0 317.67 0 317.67-25.35ZM357.11-22.15L350.11-22.15 350.11-7.3Q350.11-3.25 353.91-3.25L353.91-3.25Q355.86-3.25 357.36-4.4L357.36-4.4 357.36-0.65Q355.71 0.25 353.66 0.25L353.66 0.25Q346.16 0.25 346.16-7.4L346.16-7.4 346.16-22.15 342.11-22.15 342.11-25.35 346.16-25.35 346.16-31.65 350.11-31.65 350.11-25.35 357.11-25.35 357.11-22.15Z" opacity="1" transform="matrix(1,0,0,1,0,0)" fill="#000000" class="slogan-text-1" data-fill-palette-color="quaternary" id="text-1"></path></svg></g></svg></g></svg></g></svg></g><g></g></svg></g><defs></defs></svg><rect width="356.12052" height="176.02649202613833" fill="none" stroke="none" visibility="hidden"></rect></g></svg></g></svg>